<mxfile host="app.diagrams.net" agent="Mozilla/5.0 (Windows NT 10.0; Win64; x64) AppleWebKit/537.36 (KHTML, like Gecko) Chrome/130.0.0.0 Safari/537.36" version="24.8.3">
  <diagram name="Page-1" id="iLiLeQATNRL76kogadFo">
    <mxGraphModel dx="2157" dy="568" grid="1" gridSize="10" guides="1" tooltips="1" connect="1" arrows="1" fold="1" page="1" pageScale="1" pageWidth="850" pageHeight="1100" math="0" shadow="0">
      <root>
        <mxCell id="0" />
        <mxCell id="1" parent="0" />
        <mxCell id="Lm4qBJmIs1Og0-QYWZUU-59" value="" style="group" vertex="1" connectable="0" parent="1">
          <mxGeometry x="-80" y="110" width="760" height="610" as="geometry" />
        </mxCell>
        <mxCell id="Lm4qBJmIs1Og0-QYWZUU-1" value="Guest" style="shape=umlActor;verticalLabelPosition=bottom;verticalAlign=top;html=1;outlineConnect=0;" vertex="1" parent="Lm4qBJmIs1Og0-QYWZUU-59">
          <mxGeometry y="130" width="30" height="60" as="geometry" />
        </mxCell>
        <mxCell id="Lm4qBJmIs1Og0-QYWZUU-11" value="Nhập thông tin cá nhân" style="rounded=1;whiteSpace=wrap;html=1;" vertex="1" parent="Lm4qBJmIs1Og0-QYWZUU-59">
          <mxGeometry x="450" y="460" width="110" height="30" as="geometry" />
        </mxCell>
        <mxCell id="Lm4qBJmIs1Og0-QYWZUU-12" value="Xác nhận email hoặc số điện thoại" style="rounded=1;whiteSpace=wrap;html=1;" vertex="1" parent="Lm4qBJmIs1Og0-QYWZUU-59">
          <mxGeometry x="440" y="570" width="130" height="40" as="geometry" />
        </mxCell>
        <mxCell id="Lm4qBJmIs1Og0-QYWZUU-17" value="Xem thông tin công ty" style="ellipse;whiteSpace=wrap;html=1;" vertex="1" parent="Lm4qBJmIs1Og0-QYWZUU-59">
          <mxGeometry x="225" width="140" height="60" as="geometry" />
        </mxCell>
        <mxCell id="Lm4qBJmIs1Og0-QYWZUU-18" value="Xem các mẫu thiết kế hồ cá Koi" style="ellipse;whiteSpace=wrap;html=1;" vertex="1" parent="Lm4qBJmIs1Og0-QYWZUU-59">
          <mxGeometry x="225" y="70" width="140" height="60" as="geometry" />
        </mxCell>
        <mxCell id="Lm4qBJmIs1Og0-QYWZUU-20" value="Xem hồ cá theo danh mục" style="ellipse;whiteSpace=wrap;html=1;" vertex="1" parent="Lm4qBJmIs1Og0-QYWZUU-59">
          <mxGeometry x="230" y="140" width="140" height="60" as="geometry" />
        </mxCell>
        <mxCell id="Lm4qBJmIs1Og0-QYWZUU-21" value="Đọc Blog chia sẻ" style="ellipse;whiteSpace=wrap;html=1;" vertex="1" parent="Lm4qBJmIs1Og0-QYWZUU-59">
          <mxGeometry x="225" y="380" width="140" height="60" as="geometry" />
        </mxCell>
        <mxCell id="Lm4qBJmIs1Og0-QYWZUU-22" value="Tạo tài khoản" style="ellipse;whiteSpace=wrap;html=1;" vertex="1" parent="Lm4qBJmIs1Og0-QYWZUU-59">
          <mxGeometry x="230" y="500" width="140" height="60" as="geometry" />
        </mxCell>
        <mxCell id="Lm4qBJmIs1Og0-QYWZUU-23" value="Xem dự án đã làm" style="ellipse;whiteSpace=wrap;html=1;" vertex="1" parent="Lm4qBJmIs1Og0-QYWZUU-59">
          <mxGeometry x="225" y="210" width="140" height="60" as="geometry" />
        </mxCell>
        <mxCell id="Lm4qBJmIs1Og0-QYWZUU-24" value="Tìm kiếm theo loại hồ cá" style="ellipse;whiteSpace=wrap;html=1;" vertex="1" parent="Lm4qBJmIs1Og0-QYWZUU-59">
          <mxGeometry x="225" y="290" width="140" height="60" as="geometry" />
        </mxCell>
        <mxCell id="Lm4qBJmIs1Og0-QYWZUU-27" value="Xem chi tiết thông tin" style="ellipse;whiteSpace=wrap;html=1;" vertex="1" parent="Lm4qBJmIs1Og0-QYWZUU-59">
          <mxGeometry x="560" y="50" width="120" height="80" as="geometry" />
        </mxCell>
        <mxCell id="Lm4qBJmIs1Og0-QYWZUU-28" value="" style="endArrow=none;dashed=1;html=1;dashPattern=1 3;strokeWidth=2;rounded=0;exitX=1;exitY=0.5;exitDx=0;exitDy=0;entryX=0;entryY=0.5;entryDx=0;entryDy=0;" edge="1" parent="Lm4qBJmIs1Og0-QYWZUU-59" source="Lm4qBJmIs1Og0-QYWZUU-24" target="Lm4qBJmIs1Og0-QYWZUU-27">
          <mxGeometry width="50" height="50" relative="1" as="geometry">
            <mxPoint x="490" y="300" as="sourcePoint" />
            <mxPoint x="540" y="250" as="targetPoint" />
          </mxGeometry>
        </mxCell>
        <mxCell id="Lm4qBJmIs1Og0-QYWZUU-33" value="&amp;lt;&amp;lt;extend&amp;gt;&amp;gt;" style="edgeLabel;html=1;align=center;verticalAlign=middle;resizable=0;points=[];" vertex="1" connectable="0" parent="Lm4qBJmIs1Og0-QYWZUU-28">
          <mxGeometry x="-0.1016" y="-3" relative="1" as="geometry">
            <mxPoint as="offset" />
          </mxGeometry>
        </mxCell>
        <mxCell id="Lm4qBJmIs1Og0-QYWZUU-29" value="" style="endArrow=none;dashed=1;html=1;dashPattern=1 3;strokeWidth=2;rounded=0;exitX=0.985;exitY=0.5;exitDx=0;exitDy=0;entryX=0;entryY=0.5;entryDx=0;entryDy=0;exitPerimeter=0;" edge="1" parent="Lm4qBJmIs1Og0-QYWZUU-59" source="Lm4qBJmIs1Og0-QYWZUU-23" target="Lm4qBJmIs1Og0-QYWZUU-27">
          <mxGeometry width="50" height="50" relative="1" as="geometry">
            <mxPoint x="375" y="330" as="sourcePoint" />
            <mxPoint x="540" y="110" as="targetPoint" />
          </mxGeometry>
        </mxCell>
        <mxCell id="Lm4qBJmIs1Og0-QYWZUU-34" value="&amp;lt;&amp;lt;extend&amp;gt;&amp;gt;" style="edgeLabel;html=1;align=center;verticalAlign=middle;resizable=0;points=[];" vertex="1" connectable="0" parent="Lm4qBJmIs1Og0-QYWZUU-29">
          <mxGeometry x="-0.3682" y="1" relative="1" as="geometry">
            <mxPoint x="-1" as="offset" />
          </mxGeometry>
        </mxCell>
        <mxCell id="Lm4qBJmIs1Og0-QYWZUU-30" value="" style="endArrow=none;dashed=1;html=1;dashPattern=1 3;strokeWidth=2;rounded=0;exitX=1;exitY=0.5;exitDx=0;exitDy=0;entryX=0;entryY=0.5;entryDx=0;entryDy=0;" edge="1" parent="Lm4qBJmIs1Og0-QYWZUU-59" source="Lm4qBJmIs1Og0-QYWZUU-20" target="Lm4qBJmIs1Og0-QYWZUU-27">
          <mxGeometry width="50" height="50" relative="1" as="geometry">
            <mxPoint x="373" y="250" as="sourcePoint" />
            <mxPoint x="530" y="100" as="targetPoint" />
          </mxGeometry>
        </mxCell>
        <mxCell id="Lm4qBJmIs1Og0-QYWZUU-35" value="&amp;lt;&amp;lt;extend&amp;gt;&amp;gt;" style="edgeLabel;html=1;align=center;verticalAlign=middle;resizable=0;points=[];" vertex="1" connectable="0" parent="Lm4qBJmIs1Og0-QYWZUU-30">
          <mxGeometry x="-0.4833" y="1" relative="1" as="geometry">
            <mxPoint as="offset" />
          </mxGeometry>
        </mxCell>
        <mxCell id="Lm4qBJmIs1Og0-QYWZUU-31" value="" style="endArrow=none;dashed=1;html=1;dashPattern=1 3;strokeWidth=2;rounded=0;exitX=1;exitY=0.5;exitDx=0;exitDy=0;entryX=0;entryY=0.5;entryDx=0;entryDy=0;" edge="1" parent="Lm4qBJmIs1Og0-QYWZUU-59" source="Lm4qBJmIs1Og0-QYWZUU-18" target="Lm4qBJmIs1Og0-QYWZUU-27">
          <mxGeometry width="50" height="50" relative="1" as="geometry">
            <mxPoint x="383" y="260" as="sourcePoint" />
            <mxPoint x="550" y="120" as="targetPoint" />
          </mxGeometry>
        </mxCell>
        <mxCell id="Lm4qBJmIs1Og0-QYWZUU-36" value="&amp;lt;&amp;lt;extend&amp;gt;&amp;gt;" style="edgeLabel;html=1;align=center;verticalAlign=middle;resizable=0;points=[];" vertex="1" connectable="0" parent="Lm4qBJmIs1Og0-QYWZUU-31">
          <mxGeometry x="-0.4267" y="-2" relative="1" as="geometry">
            <mxPoint x="-1" as="offset" />
          </mxGeometry>
        </mxCell>
        <mxCell id="Lm4qBJmIs1Og0-QYWZUU-32" value="" style="endArrow=none;dashed=1;html=1;dashPattern=1 3;strokeWidth=2;rounded=0;exitX=1;exitY=0.5;exitDx=0;exitDy=0;entryX=0;entryY=0.5;entryDx=0;entryDy=0;" edge="1" parent="Lm4qBJmIs1Og0-QYWZUU-59" source="Lm4qBJmIs1Og0-QYWZUU-17" target="Lm4qBJmIs1Og0-QYWZUU-27">
          <mxGeometry width="50" height="50" relative="1" as="geometry">
            <mxPoint x="393" y="270" as="sourcePoint" />
            <mxPoint x="560" y="130" as="targetPoint" />
          </mxGeometry>
        </mxCell>
        <mxCell id="Lm4qBJmIs1Og0-QYWZUU-37" value="&amp;lt;&amp;lt;extend&amp;gt;&amp;gt;" style="edgeLabel;html=1;align=center;verticalAlign=middle;resizable=0;points=[];" vertex="1" connectable="0" parent="Lm4qBJmIs1Og0-QYWZUU-32">
          <mxGeometry x="-0.3568" y="1" relative="1" as="geometry">
            <mxPoint as="offset" />
          </mxGeometry>
        </mxCell>
        <mxCell id="Lm4qBJmIs1Og0-QYWZUU-38" value="Lọc kết quả tìm kiếm&amp;nbsp;" style="ellipse;whiteSpace=wrap;html=1;" vertex="1" parent="Lm4qBJmIs1Og0-QYWZUU-59">
          <mxGeometry x="590" y="210" width="120" height="80" as="geometry" />
        </mxCell>
        <mxCell id="Lm4qBJmIs1Og0-QYWZUU-39" value="" style="endArrow=none;dashed=1;html=1;dashPattern=1 3;strokeWidth=2;rounded=0;entryX=0;entryY=0.5;entryDx=0;entryDy=0;exitX=1;exitY=0.5;exitDx=0;exitDy=0;" edge="1" parent="Lm4qBJmIs1Og0-QYWZUU-59" source="Lm4qBJmIs1Og0-QYWZUU-24" target="Lm4qBJmIs1Og0-QYWZUU-38">
          <mxGeometry width="50" height="50" relative="1" as="geometry">
            <mxPoint x="375" y="330" as="sourcePoint" />
            <mxPoint x="570" y="100" as="targetPoint" />
          </mxGeometry>
        </mxCell>
        <mxCell id="Lm4qBJmIs1Og0-QYWZUU-40" value="&amp;lt;&amp;lt;extend&amp;gt;&amp;gt;" style="edgeLabel;html=1;align=center;verticalAlign=middle;resizable=0;points=[];" vertex="1" connectable="0" parent="Lm4qBJmIs1Og0-QYWZUU-39">
          <mxGeometry x="-0.1016" y="-3" relative="1" as="geometry">
            <mxPoint as="offset" />
          </mxGeometry>
        </mxCell>
        <mxCell id="Lm4qBJmIs1Og0-QYWZUU-41" value="" style="endArrow=none;dashed=1;html=1;dashPattern=1 3;strokeWidth=2;rounded=0;entryX=0.5;entryY=1;entryDx=0;entryDy=0;exitX=0.5;exitY=0;exitDx=0;exitDy=0;" edge="1" parent="Lm4qBJmIs1Og0-QYWZUU-59" source="Lm4qBJmIs1Og0-QYWZUU-45" target="Lm4qBJmIs1Og0-QYWZUU-38">
          <mxGeometry width="50" height="50" relative="1" as="geometry">
            <mxPoint x="670" y="420" as="sourcePoint" />
            <mxPoint x="600" y="260" as="targetPoint" />
          </mxGeometry>
        </mxCell>
        <mxCell id="Lm4qBJmIs1Og0-QYWZUU-42" value="&amp;lt;&amp;lt;extend&amp;gt;&amp;gt;" style="edgeLabel;html=1;align=center;verticalAlign=middle;resizable=0;points=[];" vertex="1" connectable="0" parent="Lm4qBJmIs1Og0-QYWZUU-41">
          <mxGeometry x="-0.1016" y="-3" relative="1" as="geometry">
            <mxPoint as="offset" />
          </mxGeometry>
        </mxCell>
        <mxCell id="Lm4qBJmIs1Og0-QYWZUU-43" value="" style="endArrow=none;dashed=1;html=1;dashPattern=1 3;strokeWidth=2;rounded=0;entryX=1;entryY=0.5;entryDx=0;entryDy=0;exitX=0.5;exitY=0;exitDx=0;exitDy=0;" edge="1" parent="Lm4qBJmIs1Og0-QYWZUU-59" source="Lm4qBJmIs1Og0-QYWZUU-45" target="Lm4qBJmIs1Og0-QYWZUU-27">
          <mxGeometry width="50" height="50" relative="1" as="geometry">
            <mxPoint x="670" y="420" as="sourcePoint" />
            <mxPoint x="610" y="270" as="targetPoint" />
            <Array as="points">
              <mxPoint x="760" y="250" />
            </Array>
          </mxGeometry>
        </mxCell>
        <mxCell id="Lm4qBJmIs1Og0-QYWZUU-44" value="&amp;lt;&amp;lt;extend&amp;gt;&amp;gt;" style="edgeLabel;html=1;align=center;verticalAlign=middle;resizable=0;points=[];" vertex="1" connectable="0" parent="Lm4qBJmIs1Og0-QYWZUU-43">
          <mxGeometry x="-0.1016" y="-3" relative="1" as="geometry">
            <mxPoint as="offset" />
          </mxGeometry>
        </mxCell>
        <mxCell id="Lm4qBJmIs1Og0-QYWZUU-45" value="Tìm kiếm nâng cao" style="ellipse;whiteSpace=wrap;html=1;" vertex="1" parent="Lm4qBJmIs1Og0-QYWZUU-59">
          <mxGeometry x="610" y="420" width="120" height="80" as="geometry" />
        </mxCell>
        <mxCell id="Lm4qBJmIs1Og0-QYWZUU-46" value="" style="endArrow=none;dashed=1;html=1;dashPattern=1 3;strokeWidth=2;rounded=0;exitX=0.954;exitY=0.206;exitDx=0;exitDy=0;exitPerimeter=0;entryX=0;entryY=0.5;entryDx=0;entryDy=0;" edge="1" parent="Lm4qBJmIs1Og0-QYWZUU-59" source="Lm4qBJmIs1Og0-QYWZUU-22" target="Lm4qBJmIs1Og0-QYWZUU-11">
          <mxGeometry width="50" height="50" relative="1" as="geometry">
            <mxPoint x="400" y="430" as="sourcePoint" />
            <mxPoint x="450" y="380" as="targetPoint" />
          </mxGeometry>
        </mxCell>
        <mxCell id="Lm4qBJmIs1Og0-QYWZUU-47" value="&amp;lt;&amp;lt;include&amp;gt;&amp;gt;" style="edgeLabel;html=1;align=center;verticalAlign=middle;resizable=0;points=[];" vertex="1" connectable="0" parent="Lm4qBJmIs1Og0-QYWZUU-46">
          <mxGeometry x="-0.0692" y="3" relative="1" as="geometry">
            <mxPoint as="offset" />
          </mxGeometry>
        </mxCell>
        <mxCell id="Lm4qBJmIs1Og0-QYWZUU-48" value="" style="endArrow=none;dashed=1;html=1;dashPattern=1 3;strokeWidth=2;rounded=0;exitX=1;exitY=1;exitDx=0;exitDy=0;entryX=0;entryY=0.25;entryDx=0;entryDy=0;" edge="1" parent="Lm4qBJmIs1Og0-QYWZUU-59" source="Lm4qBJmIs1Og0-QYWZUU-22" target="Lm4qBJmIs1Og0-QYWZUU-12">
          <mxGeometry width="50" height="50" relative="1" as="geometry">
            <mxPoint x="400" y="430" as="sourcePoint" />
            <mxPoint x="450" y="380" as="targetPoint" />
          </mxGeometry>
        </mxCell>
        <mxCell id="Lm4qBJmIs1Og0-QYWZUU-49" value="&amp;lt;&amp;lt;include&amp;gt;&amp;gt;" style="edgeLabel;html=1;align=center;verticalAlign=middle;resizable=0;points=[];" vertex="1" connectable="0" parent="Lm4qBJmIs1Og0-QYWZUU-48">
          <mxGeometry x="0.2017" relative="1" as="geometry">
            <mxPoint as="offset" />
          </mxGeometry>
        </mxCell>
        <mxCell id="Lm4qBJmIs1Og0-QYWZUU-51" value="" style="endArrow=none;html=1;rounded=0;entryX=0;entryY=0.5;entryDx=0;entryDy=0;" edge="1" parent="Lm4qBJmIs1Og0-QYWZUU-59" source="Lm4qBJmIs1Og0-QYWZUU-1" target="Lm4qBJmIs1Og0-QYWZUU-18">
          <mxGeometry width="50" height="50" relative="1" as="geometry">
            <mxPoint x="400" y="300" as="sourcePoint" />
            <mxPoint x="450" y="250" as="targetPoint" />
          </mxGeometry>
        </mxCell>
        <mxCell id="Lm4qBJmIs1Og0-QYWZUU-53" value="" style="endArrow=none;html=1;rounded=0;entryX=0;entryY=0.5;entryDx=0;entryDy=0;" edge="1" parent="Lm4qBJmIs1Og0-QYWZUU-59" source="Lm4qBJmIs1Og0-QYWZUU-1" target="Lm4qBJmIs1Og0-QYWZUU-17">
          <mxGeometry width="50" height="50" relative="1" as="geometry">
            <mxPoint x="400" y="300" as="sourcePoint" />
            <mxPoint x="450" y="250" as="targetPoint" />
          </mxGeometry>
        </mxCell>
        <mxCell id="Lm4qBJmIs1Og0-QYWZUU-54" value="" style="endArrow=none;html=1;rounded=0;entryX=0;entryY=0.5;entryDx=0;entryDy=0;" edge="1" parent="Lm4qBJmIs1Og0-QYWZUU-59" source="Lm4qBJmIs1Og0-QYWZUU-1" target="Lm4qBJmIs1Og0-QYWZUU-20">
          <mxGeometry width="50" height="50" relative="1" as="geometry">
            <mxPoint x="160" y="152" as="sourcePoint" />
            <mxPoint x="235" y="110" as="targetPoint" />
          </mxGeometry>
        </mxCell>
        <mxCell id="Lm4qBJmIs1Og0-QYWZUU-55" value="" style="endArrow=none;html=1;rounded=0;entryX=0;entryY=0.5;entryDx=0;entryDy=0;" edge="1" parent="Lm4qBJmIs1Og0-QYWZUU-59" target="Lm4qBJmIs1Og0-QYWZUU-23">
          <mxGeometry width="50" height="50" relative="1" as="geometry">
            <mxPoint x="20" y="170" as="sourcePoint" />
            <mxPoint x="220" y="230" as="targetPoint" />
            <Array as="points" />
          </mxGeometry>
        </mxCell>
        <mxCell id="Lm4qBJmIs1Og0-QYWZUU-56" value="" style="endArrow=none;html=1;rounded=0;entryX=0;entryY=0.5;entryDx=0;entryDy=0;" edge="1" parent="Lm4qBJmIs1Og0-QYWZUU-59" source="Lm4qBJmIs1Og0-QYWZUU-1" target="Lm4qBJmIs1Og0-QYWZUU-24">
          <mxGeometry width="50" height="50" relative="1" as="geometry">
            <mxPoint x="170" y="173" as="sourcePoint" />
            <mxPoint x="250" y="190" as="targetPoint" />
          </mxGeometry>
        </mxCell>
        <mxCell id="Lm4qBJmIs1Og0-QYWZUU-57" value="" style="endArrow=none;html=1;rounded=0;entryX=0;entryY=0.5;entryDx=0;entryDy=0;" edge="1" parent="Lm4qBJmIs1Og0-QYWZUU-59" source="Lm4qBJmIs1Og0-QYWZUU-1" target="Lm4qBJmIs1Og0-QYWZUU-21">
          <mxGeometry width="50" height="50" relative="1" as="geometry">
            <mxPoint x="160" y="190" as="sourcePoint" />
            <mxPoint x="235" y="330" as="targetPoint" />
          </mxGeometry>
        </mxCell>
        <mxCell id="Lm4qBJmIs1Og0-QYWZUU-58" value="" style="endArrow=none;html=1;rounded=0;entryX=0;entryY=0.5;entryDx=0;entryDy=0;" edge="1" parent="Lm4qBJmIs1Og0-QYWZUU-59" source="Lm4qBJmIs1Og0-QYWZUU-1" target="Lm4qBJmIs1Og0-QYWZUU-22">
          <mxGeometry width="50" height="50" relative="1" as="geometry">
            <mxPoint x="190" y="193" as="sourcePoint" />
            <mxPoint x="235" y="420" as="targetPoint" />
          </mxGeometry>
        </mxCell>
      </root>
    </mxGraphModel>
  </diagram>
</mxfile>
